<svg id="visual" viewBox="0 0 900 600" width="900" height="600" xmlns="http://www.w3.org/2000/svg" xmlns:xlink="http://www.w3.org/1999/xlink" version="1.1"><rect x="0" y="0" width="900" height="600" fill="#001220"></rect><defs><linearGradient id="grad1_0" x1="33.3%" y1="0%" x2="100%" y2="100%"><stop offset="20%" stop-color="#001220" stop-opacity="1"></stop><stop offset="80%" stop-color="#001220" stop-opacity="1"></stop></linearGradient></defs><defs><linearGradient id="grad2_0" x1="0%" y1="0%" x2="66.7%" y2="100%"><stop offset="20%" stop-color="#001220" stop-opacity="1"></stop><stop offset="80%" stop-color="#001220" stop-opacity="1"></stop></linearGradient></defs><g transform="translate(900, 0)"><path d="M0 486.7C-27.8 428.5 -55.5 370.3 -98.6 368C-141.7 365.7 -200.2 419.3 -243.4 421.5C-286.6 423.8 -314.5 374.6 -328.8 328.8C-343.1 283 -343.6 240.7 -357.7 206.5C-371.7 172.3 -399.3 146.4 -423.1 113.4C-446.8 80.3 -466.8 40.2 -486.7 0L0 0Z" fill="#4FACF7"></path></g><g transform="translate(0, 600)"><path d="M0 -486.7C40.2 -475.6 80.4 -464.4 121.1 -452.1C161.9 -439.7 203.3 -426.2 229.5 -397.5C255.7 -368.8 266.9 -324.8 299.8 -299.8C332.8 -274.8 387.5 -268.8 420 -242.5C452.5 -216.2 462.8 -169.8 470.2 -126C477.6 -82.2 482.2 -41.1 486.7 0L0 0Z" fill="#4FACF7"></path></g></svg>