<svg id="visual" viewBox="0 0 900 600" width="900" height="600" xmlns="http://www.w3.org/2000/svg" xmlns:xlink="http://www.w3.org/1999/xlink" version="1.1"><rect x="0" y="0" width="900" height="600" fill="#001122"></rect><path d="M548 0L517 0L517 67L528 67L528 133L582 133L582 200L515 200L515 267L481 267L481 333L418 333L418 400L482 400L482 467L560 467L560 533L615 533L615 600L0 600L0 533L0 533L0 467L0 467L0 400L0 400L0 333L0 333L0 267L0 267L0 200L0 200L0 133L0 133L0 67L0 67L0 0L0 0Z" fill="#4facf7"></path><path d="M429 0L406 0L406 67L348 67L348 133L474 133L474 200L298 200L298 267L381 267L381 333L334 333L334 400L452 400L452 467L333 467L333 533L409 533L409 600L0 600L0 533L0 533L0 467L0 467L0 400L0 400L0 333L0 333L0 267L0 267L0 200L0 200L0 133L0 133L0 67L0 67L0 0L0 0Z" fill="#408ad3"></path><path d="M330 0L227 0L227 67L306 67L306 133L204 133L204 200L239 200L239 267L338 267L338 333L265 333L265 400L288 400L288 467L295 467L295 533L319 533L319 600L0 600L0 533L0 533L0 467L0 467L0 400L0 400L0 333L0 333L0 267L0 267L0 200L0 200L0 133L0 133L0 67L0 67L0 0L0 0Z" fill="#306aaf"></path><path d="M171 0L148 0L148 67L165 67L165 133L113 133L113 200L205 200L205 267L195 267L195 333L159 333L159 400L189 400L189 467L121 467L121 533L106 533L106 600L0 600L0 533L0 533L0 467L0 467L0 400L0 400L0 333L0 333L0 267L0 267L0 200L0 200L0 133L0 133L0 67L0 67L0 0L0 0Z" fill="#204b8b"></path></svg>