<svg id="visual" viewBox="0 0 900 600" width="900" height="600" xmlns="http://www.w3.org/2000/svg" xmlns:xlink="http://www.w3.org/1999/xlink" version="1.1"><g stroke-width="1" stroke-linejoin="bevel"><path d="M474 311L418 215L410 332Z" fill="#245980" stroke="#245980"></path><path d="M418 215L321 264L410 332Z" fill="#163a55" stroke="#163a55"></path><path d="M474 311L486 179L418 215Z" fill="#091e2e" stroke="#091e2e"></path><path d="M418 215L325 179L321 264Z" fill="#4facf7" stroke="#4facf7"></path><path d="M412 91L325 179L418 215Z" fill="#00101c" stroke="#00101c"></path><path d="M531 439L565 300L474 311Z" fill="#3c8ac6" stroke="#3c8ac6"></path><path d="M474 311L565 300L486 179Z" fill="#091e2e" stroke="#091e2e"></path><path d="M272 426L385 434L410 332Z" fill="#163a55" stroke="#163a55"></path><path d="M410 332L531 439L474 311Z" fill="#091e2e" stroke="#091e2e"></path><path d="M486 179L412 91L418 215Z" fill="#4facf7" stroke="#4facf7"></path><path d="M565 300L609 226L486 179Z" fill="#00101c" stroke="#00101c"></path><path d="M486 179L530 98L412 91Z" fill="#245980" stroke="#245980"></path><path d="M479 473L531 439L410 332Z" fill="#0f2c41" stroke="#0f2c41"></path><path d="M565 300L715 289L609 226Z" fill="#163a55" stroke="#163a55"></path><path d="M609 226L530 98L486 179Z" fill="#3479ae" stroke="#3479ae"></path><path d="M385 434L479 473L410 332Z" fill="#459bde" stroke="#459bde"></path><path d="M678 368L591 405L598 485Z" fill="#3c8ac6" stroke="#3c8ac6"></path><path d="M531 439L591 405L565 300Z" fill="#4facf7" stroke="#4facf7"></path><path d="M321 264L272 426L410 332Z" fill="#459bde" stroke="#459bde"></path><path d="M385 434L414 501L479 473Z" fill="#4facf7" stroke="#4facf7"></path><path d="M204 265L272 426L321 264Z" fill="#459bde" stroke="#459bde"></path><path d="M197 176L204 265L325 179Z" fill="#3479ae" stroke="#3479ae"></path><path d="M325 179L204 265L321 264Z" fill="#1d496a" stroke="#1d496a"></path><path d="M262 462L414 501L385 434Z" fill="#00101c" stroke="#00101c"></path><path d="M366 0L311 63L412 91Z" fill="#4facf7" stroke="#4facf7"></path><path d="M412 91L311 63L325 179Z" fill="#00101c" stroke="#00101c"></path><path d="M167 409L262 462L272 426Z" fill="#163a55" stroke="#163a55"></path><path d="M272 426L262 462L385 434Z" fill="#1d496a" stroke="#1d496a"></path><path d="M199 119L197 176L325 179Z" fill="#091e2e" stroke="#091e2e"></path><path d="M598 485L591 405L531 439Z" fill="#4facf7" stroke="#4facf7"></path><path d="M591 405L678 368L565 300Z" fill="#3479ae" stroke="#3479ae"></path><path d="M609 226L607 72L530 98Z" fill="#0f2c41" stroke="#0f2c41"></path><path d="M498 0L366 0L412 91Z" fill="#4facf7" stroke="#4facf7"></path><path d="M703 64L607 72L609 226Z" fill="#459bde" stroke="#459bde"></path><path d="M479 473L598 485L531 439Z" fill="#1d496a" stroke="#1d496a"></path><path d="M480 600L598 485L479 473Z" fill="#4facf7" stroke="#4facf7"></path><path d="M311 63L199 119L325 179Z" fill="#4facf7" stroke="#4facf7"></path><path d="M498 0L412 91L530 98Z" fill="#459bde" stroke="#459bde"></path><path d="M311 63L211 0L199 119Z" fill="#2c6997" stroke="#2c6997"></path><path d="M597 0L498 0L530 98Z" fill="#1d496a" stroke="#1d496a"></path><path d="M678 368L715 289L565 300Z" fill="#3c8ac6" stroke="#3c8ac6"></path><path d="M126 403L204 265L80 300Z" fill="#3c8ac6" stroke="#3c8ac6"></path><path d="M126 403L167 409L204 265Z" fill="#459bde" stroke="#459bde"></path><path d="M204 265L167 409L272 426Z" fill="#4facf7" stroke="#4facf7"></path><path d="M366 0L319 0L311 63Z" fill="#0f2c41" stroke="#0f2c41"></path><path d="M715 289L734 231L609 226Z" fill="#459bde" stroke="#459bde"></path><path d="M687 0L597 0L607 72Z" fill="#091e2e" stroke="#091e2e"></path><path d="M607 72L597 0L530 98Z" fill="#091e2e" stroke="#091e2e"></path><path d="M80 300L204 265L75 165Z" fill="#091e2e" stroke="#091e2e"></path><path d="M167 409L189 525L262 462Z" fill="#00101c" stroke="#00101c"></path><path d="M282 600L388 600L414 501Z" fill="#4facf7" stroke="#4facf7"></path><path d="M414 501L480 600L479 473Z" fill="#3479ae" stroke="#3479ae"></path><path d="M282 600L414 501L262 462Z" fill="#1d496a" stroke="#1d496a"></path><path d="M388 600L480 600L414 501Z" fill="#3c8ac6" stroke="#3c8ac6"></path><path d="M95 525L189 525L167 409Z" fill="#00101c" stroke="#00101c"></path><path d="M734 231L703 64L609 226Z" fill="#0f2c41" stroke="#0f2c41"></path><path d="M75 165L204 265L197 176Z" fill="#3479ae" stroke="#3479ae"></path><path d="M319 0L211 0L311 63Z" fill="#1d496a" stroke="#1d496a"></path><path d="M199 119L75 165L197 176Z" fill="#0f2c41" stroke="#0f2c41"></path><path d="M189 525L282 600L262 462Z" fill="#3c8ac6" stroke="#3c8ac6"></path><path d="M715 289L787 308L734 231Z" fill="#0f2c41" stroke="#0f2c41"></path><path d="M734 231L804 114L703 64Z" fill="#091e2e" stroke="#091e2e"></path><path d="M678 368L787 308L715 289Z" fill="#0f2c41" stroke="#0f2c41"></path><path d="M779 403L787 308L678 368Z" fill="#091e2e" stroke="#091e2e"></path><path d="M779 403L678 368L718 529Z" fill="#0f2c41" stroke="#0f2c41"></path><path d="M480 600L597 600L598 485Z" fill="#163a55" stroke="#163a55"></path><path d="M94 95L75 165L199 119Z" fill="#245980" stroke="#245980"></path><path d="M718 529L678 368L598 485Z" fill="#1d496a" stroke="#1d496a"></path><path d="M211 0L94 95L199 119Z" fill="#00101c" stroke="#00101c"></path><path d="M787 0L687 0L703 64Z" fill="#4facf7" stroke="#4facf7"></path><path d="M703 64L687 0L607 72Z" fill="#163a55" stroke="#163a55"></path><path d="M662 600L718 529L598 485Z" fill="#0f2c41" stroke="#0f2c41"></path><path d="M900 292L822 232L787 308Z" fill="#3c8ac6" stroke="#3c8ac6"></path><path d="M787 308L822 232L734 231Z" fill="#0f2c41" stroke="#0f2c41"></path><path d="M95 525L198 600L189 525Z" fill="#4facf7" stroke="#4facf7"></path><path d="M189 525L198 600L282 600Z" fill="#245980" stroke="#245980"></path><path d="M95 525L167 409L126 403Z" fill="#4facf7" stroke="#4facf7"></path><path d="M597 600L662 600L598 485Z" fill="#1d496a" stroke="#1d496a"></path><path d="M822 232L804 114L734 231Z" fill="#163a55" stroke="#163a55"></path><path d="M0 508L95 525L126 403Z" fill="#00101c" stroke="#00101c"></path><path d="M211 0L102 0L94 95Z" fill="#459bde" stroke="#459bde"></path><path d="M0 100L0 222L75 165Z" fill="#2c6997" stroke="#2c6997"></path><path d="M0 222L0 304L80 300Z" fill="#00101c" stroke="#00101c"></path><path d="M80 300L0 384L126 403Z" fill="#2c6997" stroke="#2c6997"></path><path d="M0 222L80 300L75 165Z" fill="#459bde" stroke="#459bde"></path><path d="M0 100L75 165L94 95Z" fill="#0f2c41" stroke="#0f2c41"></path><path d="M0 304L0 384L80 300Z" fill="#00101c" stroke="#00101c"></path><path d="M900 0L787 0L804 114Z" fill="#3479ae" stroke="#3479ae"></path><path d="M804 114L787 0L703 64Z" fill="#459bde" stroke="#459bde"></path><path d="M0 0L0 100L94 95Z" fill="#163a55" stroke="#163a55"></path><path d="M662 600L760 600L718 529Z" fill="#3c8ac6" stroke="#3c8ac6"></path><path d="M718 529L839 495L779 403Z" fill="#163a55" stroke="#163a55"></path><path d="M900 388L900 292L787 308Z" fill="#091e2e" stroke="#091e2e"></path><path d="M760 600L839 495L718 529Z" fill="#2c6997" stroke="#2c6997"></path><path d="M900 388L787 308L779 403Z" fill="#245980" stroke="#245980"></path><path d="M822 232L900 194L804 114Z" fill="#1d496a" stroke="#1d496a"></path><path d="M95 525L81 600L198 600Z" fill="#3c8ac6" stroke="#3c8ac6"></path><path d="M0 508L81 600L95 525Z" fill="#1d496a" stroke="#1d496a"></path><path d="M900 292L900 194L822 232Z" fill="#245980" stroke="#245980"></path><path d="M0 384L0 508L126 403Z" fill="#1d496a" stroke="#1d496a"></path><path d="M839 495L900 388L779 403Z" fill="#163a55" stroke="#163a55"></path><path d="M900 194L900 128L804 114Z" fill="#459bde" stroke="#459bde"></path><path d="M102 0L0 0L94 95Z" fill="#091e2e" stroke="#091e2e"></path><path d="M900 600L900 510L839 495Z" fill="#245980" stroke="#245980"></path><path d="M839 495L900 510L900 388Z" fill="#1d496a" stroke="#1d496a"></path><path d="M0 508L0 600L81 600Z" fill="#0f2c41" stroke="#0f2c41"></path><path d="M900 128L900 0L804 114Z" fill="#4facf7" stroke="#4facf7"></path><path d="M760 600L900 600L839 495Z" fill="#163a55" stroke="#163a55"></path></g></svg>