<svg id="visual" viewBox="0 0 900 600" width="900" height="600" xmlns="http://www.w3.org/2000/svg" xmlns:xlink="http://www.w3.org/1999/xlink" version="1.1"><rect width="900" height="600" fill="#001829"></rect><g><g transform="translate(738 418)"><path d="M0 -147L127.3 -73.5L127.3 73.5L0 147L-127.3 73.5L-127.3 -73.5Z" fill="#297EA6"></path></g><g transform="translate(319 325)"><path d="M0 -106L91.8 -53L91.8 53L0 106L-91.8 53L-91.8 -53Z" fill="#297EA6"></path></g><g transform="translate(25 154)"><path d="M0 -67L58 -33.5L58 33.5L0 67L-58 33.5L-58 -33.5Z" fill="#297EA6"></path></g><g transform="translate(579 61)"><path d="M0 -114L98.7 -57L98.7 57L0 114L-98.7 57L-98.7 -57Z" fill="#297EA6"></path></g><g transform="translate(898 153)"><path d="M0 -87L75.3 -43.5L75.3 43.5L0 87L-75.3 43.5L-75.3 -43.5Z" fill="#297EA6"></path></g><g transform="translate(21 471)"><path d="M0 -117L101.3 -58.5L101.3 58.5L0 117L-101.3 58.5L-101.3 -58.5Z" fill="#297EA6"></path></g></g></svg>