<svg id="visual" viewBox="0 0 900 600" width="900" height="600" xmlns="http://www.w3.org/2000/svg" xmlns:xlink="http://www.w3.org/1999/xlink" version="1.1"><path d="M791 600L746 600L746 525L827 525L827 450L782 450L782 375L782 375L782 300L800 300L800 225L782 225L782 150L854 150L854 75L818 75L818 0L900 0L900 75L900 75L900 150L900 150L900 225L900 225L900 300L900 300L900 375L900 375L900 450L900 450L900 525L900 525L900 600L900 600Z" fill="#0066ff"></path><path d="M665 600L665 600L665 525L710 525L710 450L620 450L620 375L557 375L557 300L557 300L557 225L719 225L719 150L683 150L683 75L746 75L746 0L819 0L819 75L855 75L855 150L783 150L783 225L801 225L801 300L783 300L783 375L783 375L783 450L828 450L828 525L747 525L747 600L792 600Z" fill="#0076ff"></path><path d="M620 600L494 600L494 525L620 525L620 450L476 450L476 375L494 375L494 300L476 300L476 225L620 225L620 150L629 150L629 75L647 75L647 0L747 0L747 75L684 75L684 150L720 150L720 225L558 225L558 300L558 300L558 375L621 375L621 450L711 450L711 525L666 525L666 600L666 600Z" fill="#0085ff"></path><path d="M224 600L260 600L260 525L431 525L431 450L323 450L323 375L341 375L341 300L341 300L341 225L476 225L476 150L332 150L332 75L440 75L440 0L648 0L648 75L630 75L630 150L621 150L621 225L477 225L477 300L495 300L495 375L477 375L477 450L621 450L621 525L495 525L495 600L621 600Z" fill="#1393fe"></path><path d="M170 600L197 600L197 525L377 525L377 450L188 450L188 375L242 375L242 300L251 300L251 225L404 225L404 150L233 150L233 75L404 75L404 0L441 0L441 75L333 75L333 150L477 150L477 225L342 225L342 300L342 300L342 375L324 375L324 450L432 450L432 525L261 525L261 600L225 600Z" fill="#33a0fb"></path><path d="M0 600L0 600L0 525L0 525L0 450L0 450L0 375L0 375L0 300L0 300L0 225L0 225L0 150L0 150L0 75L0 75L0 0L405 0L405 75L234 75L234 150L405 150L405 225L252 225L252 300L243 300L243 375L189 375L189 450L378 450L378 525L198 525L198 600L171 600Z" fill="#4facf7"></path></svg>