<svg id="visual" viewBox="0 0 900 600" width="900" height="600" xmlns="http://www.w3.org/2000/svg" xmlns:xlink="http://www.w3.org/1999/xlink" version="1.1"><path d="M0 37L90 43L180 43L270 43L360 31L450 43L540 37L630 31L720 43L810 31L900 31L900 0L810 0L720 0L630 0L540 0L450 0L360 0L270 0L180 0L90 0L0 0Z" fill="#4facf7"></path><path d="M0 91L90 85L180 79L270 97L360 85L450 97L540 73L630 85L720 85L810 79L900 61L900 29L810 29L720 41L630 29L540 35L450 41L360 29L270 41L180 41L90 41L0 35Z" fill="#4699dc"></path><path d="M0 193L90 163L180 163L270 259L360 187L450 205L540 169L630 169L720 169L810 217L900 175L900 59L810 77L720 83L630 83L540 71L450 95L360 83L270 95L180 77L90 83L0 89Z" fill="#3d86c2"></path><path d="M0 217L90 187L180 187L270 295L360 223L450 241L540 199L630 205L720 199L810 247L900 199L900 173L810 215L720 167L630 167L540 167L450 203L360 185L270 257L180 161L90 161L0 191Z" fill="#3474a9"></path><path d="M0 253L90 223L180 229L270 337L360 253L450 271L540 223L630 229L720 223L810 283L900 241L900 197L810 245L720 197L630 203L540 197L450 239L360 221L270 293L180 185L90 185L0 215Z" fill="#2b6290"></path><path d="M0 301L90 295L180 295L270 379L360 301L450 337L540 301L630 301L720 271L810 355L900 283L900 239L810 281L720 221L630 227L540 221L450 269L360 251L270 335L180 227L90 221L0 251Z" fill="#235078"></path><path d="M0 463L90 433L180 463L270 481L360 439L450 463L540 463L630 439L720 439L810 463L900 469L900 281L810 353L720 269L630 299L540 299L450 335L360 299L270 377L180 293L90 293L0 299Z" fill="#1a4061"></path><path d="M0 505L90 487L180 523L270 529L360 475L450 505L540 499L630 481L720 475L810 499L900 505L900 467L810 461L720 437L630 437L540 461L450 461L360 437L270 479L180 461L90 431L0 461Z" fill="#112f4b"></path><path d="M0 529L90 517L180 547L270 547L360 511L450 535L540 523L630 505L720 505L810 517L900 541L900 503L810 497L720 473L630 479L540 497L450 503L360 473L270 527L180 521L90 485L0 503Z" fill="#082036"></path><path d="M0 601L90 601L180 601L270 601L360 601L450 601L540 601L630 601L720 601L810 601L900 601L900 539L810 515L720 503L630 503L540 521L450 533L360 509L270 545L180 545L90 515L0 527Z" fill="#001122"></path></svg>