<svg id="visual" viewBox="0 0 900 600" width="900" height="600" xmlns="http://www.w3.org/2000/svg" xmlns:xlink="http://www.w3.org/1999/xlink" version="1.1"><rect x="0" y="0" width="900" height="600" fill="#001829"></rect><g fill="#297EA6"><path d="M0 -111.4L25 -34.4L105.9 -34.4L40.5 13.1L65.5 90.1L0 42.5L-65.5 90.1L-40.5 13.1L-105.9 -34.4L-25 -34.4Z" transform="translate(429 525)"></path><path d="M0 -49.1L11 -15.2L46.7 -15.2L17.8 5.8L28.8 39.7L0 18.7L-28.8 39.7L-17.8 5.8L-46.7 -15.2L-11 -15.2Z" transform="translate(689 62)"></path><path d="M0 -87.8L19.7 -27.1L83.5 -27.1L31.9 10.4L51.6 71L0 33.5L-51.6 71L-31.9 10.4L-83.5 -27.1L-19.7 -27.1Z" transform="translate(893 267)"></path><path d="M0 -68L15.3 -21L64.6 -21L24.7 8L39.9 55L0 26L-39.9 55L-24.7 8L-64.6 -21L-15.3 -21Z" transform="translate(53 22)"></path><path d="M0 -81.2L18.2 -25.1L77.2 -25.1L29.5 9.6L47.7 65.7L0 31L-47.7 65.7L-29.5 9.6L-77.2 -25.1L-18.2 -25.1Z" transform="translate(665 390)"></path><path d="M0 -102.9L23.1 -31.8L97.8 -31.8L37.4 12.1L60.5 83.2L0 39.3L-60.5 83.2L-37.4 12.1L-97.8 -31.8L-23.1 -31.8Z" transform="translate(181 557)"></path><path d="M0 -52.9L11.9 -16.3L50.3 -16.3L19.2 6.2L31.1 42.8L0 20.2L-31.1 42.8L-19.2 6.2L-50.3 -16.3L-11.9 -16.3Z" transform="translate(382 92)"></path><path d="M0 -56.6L12.7 -17.5L53.9 -17.5L20.6 6.7L33.3 45.8L0 21.6L-33.3 45.8L-20.6 6.7L-53.9 -17.5L-12.7 -17.5Z" transform="translate(32 363)"></path><path d="M0 -50L11.2 -15.5L47.6 -15.5L18.2 5.9L29.4 40.5L0 19.1L-29.4 40.5L-18.2 5.9L-47.6 -15.5L-11.2 -15.5Z" transform="translate(868 552)"></path><path d="M0 -78.3L17.6 -24.2L74.5 -24.2L28.5 9.2L46 63.4L0 29.9L-46 63.4L-28.5 9.2L-74.5 -24.2L-17.6 -24.2Z" transform="translate(273 333)"></path></g></svg>